<?xml version="1.0" encoding="UTF-8"?><svg xmlns="http://www.w3.org/2000/svg" viewBox="0 0 36 36">
 <g id="change1_1"><path d="m36 32c0 2.209-1.791 4-4 4h-28c-2.209 0-4-1.791-4-4v-28c0-2.209 1.791-4 4-4h28c2.209 0 4 1.791 4 4v28z" fill="#3B88C3"/></g>
 <g id="change2_1"><path d="m1.836 12.585c0-0.738 0.504-1.404 1.405-1.404h4.609c0.792 0 1.206 0.612 1.206 1.242 0 0.612-0.396 1.243-1.206 1.243h-3.312v2.629h2.791c0.864 0 1.296 0.612 1.296 1.224 0 0.631-0.432 1.261-1.296 1.261h-2.791v3.925c0 0.9-0.576 1.405-1.351 1.405-0.774 0-1.351-0.505-1.351-1.405v-10.12zm7.992 0c0-0.864 0.486-1.404 1.387-1.404h3.169c2.773 0 4.483 1.242 4.483 4.069 0 1.981-1.495 3.115-3.331 3.403l3.061 3.277c0.252 0.269 0.36 0.54 0.36 0.792 0 0.702-0.558 1.387-1.351 1.387-0.324 0-0.756-0.126-1.044-0.469l-3.998-4.843h-0.036v3.906c0 0.9-0.576 1.405-1.351 1.405-0.774 0-1.351-0.505-1.351-1.405v-10.118zm2.701 4.267h1.854c0.99 0 1.674-0.594 1.674-1.603 0-1.026-0.684-1.584-1.674-1.584h-1.854v3.187zm6.948-4.105c0-0.9 0.449-1.566 1.404-1.566h4.465c0.865 0 1.279 0.612 1.279 1.242 0 0.612-0.434 1.243-1.279 1.243h-3.168v2.629h2.952c0.882 0 1.313 0.612 1.313 1.242 0 0.612-0.449 1.242-1.313 1.242h-2.952v2.737h3.33c0.865 0 1.279 0.611 1.279 1.242 0 0.612-0.434 1.242-1.279 1.242h-4.644c-0.793 0-1.387-0.54-1.387-1.351v-9.902zm7.974 0c0-0.9 0.449-1.566 1.404-1.566h4.465c0.863 0 1.277 0.612 1.277 1.242 0 0.612-0.432 1.243-1.277 1.243h-3.17v2.629h2.953c0.883 0 1.314 0.612 1.314 1.242 0 0.612-0.449 1.242-1.314 1.242h-2.953v2.737h3.332c0.863 0 1.277 0.611 1.277 1.242 0 0.612-0.432 1.242-1.277 1.242h-4.646c-0.791 0-1.385-0.54-1.385-1.351v-9.902z" fill="#FFF"/></g>
</svg>