<?xml version="1.0" encoding="utf-8"?>
<!-- Generator: Adobe Illustrator 16.0.0, SVG Export Plug-In . SVG Version: 6.00 Build 0)  -->
<!DOCTYPE svg PUBLIC "-//W3C//DTD SVG 1.1//EN" "http://www.w3.org/Graphics/SVG/1.1/DTD/svg11.dtd">
<svg version="1.1" id="Layer_1" xmlns="http://www.w3.org/2000/svg" xmlns:xlink="http://www.w3.org/1999/xlink" x="0px" y="0px"
	 width="100px" height="145.425px" viewBox="0 0 100 145.425" enable-background="new 0 0 100 145.425" xml:space="preserve">
<g id="change1">
	<path fill="#F4BC33" d="M92.301,145.425c-16.635,0-32.959,0-49.479,0c0-2.625-0.288-5.223,0.053-7.727
		c1.052-7.771-1.504-13.787-7.816-18.453c-3.476-2.574-6.75-5.461-9.882-8.447c-4.812-4.588-7.798-10.45-10.651-16.35
		c-3.804-7.878-7.609-15.737-13.151-22.627c-2.648-3.3-1.326-6.97,2.715-8.218c4.253-1.307,7.971-0.118,11.188,2.737
		c4.876,4.321,8.016,9.892,11.041,15.538c0.596,1.112,1.394,2.21,2.361,2.993c1.372,1.107,2.408,0.62,2.724-1.1
		c0.19-1.037,0.342-2.116,0.307-3.167c-0.506-15.807-1.04-31.613-1.589-47.425c-0.179-5.165-0.453-10.333-0.627-15.5
		c-0.085-2.555,0.694-4.814,2.702-6.507c3.682-3.113,8.588-1.609,9.495,3.104c0.703,3.639,0.965,7.378,1.23,11.087
		c0.694,9.783,1.278,19.566,1.923,29.352c0.045,0.679,0.024,1.509,0.393,1.985c0.585,0.755,1.475,1.751,2.239,1.755
		c0.788,0,1.756-0.931,2.31-1.7c0.374-0.518,0.208-1.461,0.214-2.212c0.081-14.769,0.142-29.537,0.231-44.303
		c0.009-1.522,0.116-3.039,0.264-4.55c0.324-3.239,3.026-5.631,6.359-5.689c3.496-0.06,5.896,1.972,6.232,5.578
		c0.286,3.023,0.392,6.074,0.423,9.111c0.171,13.391,0.287,26.784,0.425,40.178c0.003,0.453-0.138,1.066,0.095,1.339
		c0.694,0.793,1.54,1.444,2.319,2.157c0.655-0.803,1.81-1.573,1.866-2.417c0.474-6.598,0.699-13.21,1.062-19.818
		c0.377-6.902,0.729-13.819,1.265-20.71c0.328-4.21,2.484-6.339,5.77-6.193c3.605,0.158,6.75,3.229,6.828,7.008
		c0.094,4.179-0.036,8.369-0.164,12.551c-0.27,8.743-0.6,17.484-0.912,26.221c-0.057,1.674-0.215,3.338-0.235,5.009
		c-0.013,1.467,0.611,2.548,2.239,2.601c1.574,0.049,2.006-0.984,2.13-2.374c0.722-8.4,1.476-16.804,2.222-25.198
		c0.258-2.867,0.299-5.791,0.889-8.594c0.805-3.877,4.732-5.089,7.394-2.185c1.435,1.565,2.603,3.895,2.813,5.991
		c1.121,11.023,0.109,21.994-1.064,32.979c-0.354,3.354,0.032,6.831,0.354,10.222c1.576,16.504,1.332,32.757-5.344,48.385
		c-2.359,5.528-1.652,11.512-1.443,17.356C92.081,141.221,92.199,143.24,92.301,145.425z"/>
</g>
</svg>
