<?xml version="1.0" encoding="UTF-8" standalone="no"?>
<svg
   xmlns:dc="http://purl.org/dc/elements/1.1/"
   xmlns:cc="http://creativecommons.org/ns#"
   xmlns:rdf="http://www.w3.org/1999/02/22-rdf-syntax-ns#"
   xmlns:svg="http://www.w3.org/2000/svg"
   xmlns="http://www.w3.org/2000/svg"
   xmlns:sodipodi="http://sodipodi.sourceforge.net/DTD/sodipodi-0.dtd"
   xmlns:inkscape="http://www.inkscape.org/namespaces/inkscape"
   version="1.0"
   width="600px"
   height="600px"
   viewBox="0 0 6000 6000"
   preserveAspectRatio="xMidYMid meet"
   id="svg49"
   sodipodi:docname="legaltech_logo_A1.svg"
   inkscape:version="0.92.3 (2405546, 2018-03-11)">
  <metadata
     id="metadata55">
    <rdf:RDF>
      <cc:Work
         rdf:about="">
        <dc:format>image/svg+xml</dc:format>
        <dc:type
           rdf:resource="http://purl.org/dc/dcmitype/StillImage" />
        <dc:title></dc:title>
      </cc:Work>
    </rdf:RDF>
  </metadata>
  <defs
     id="defs53" />
  <sodipodi:namedview
     pagecolor="#ffffff"
     bordercolor="#666666"
     borderopacity="1"
     objecttolerance="10"
     gridtolerance="10"
     guidetolerance="10"
     inkscape:pageopacity="0"
     inkscape:pageshadow="2"
     inkscape:window-width="1962"
     inkscape:window-height="1411"
     id="namedview51"
     showgrid="false"
     inkscape:zoom="1.5733333"
     inkscape:cx="196.08716"
     inkscape:cy="316.57817"
     inkscape:window-x="189"
     inkscape:window-y="-9"
     inkscape:window-maximized="1"
     inkscape:current-layer="layer2" />
  <g
     inkscape:groupmode="layer"
     id="layer1"
     inkscape:label="Layer 1"
     style="display:none">
    <g
       id="g110">
      <path
         d="m 1821,5666 -22,-24 42,-23 c 63,-35 81,-73 87,-185 l 5,-94 h 37 38 l -4,43 c -2,23 -5,71 -7,107 -5,81 -34,140 -84,175 -47,31 -63,31 -92,1 z"
         id="path2"
         inkscape:connector-curvature="0"
         style="fill:#4a6b7a;stroke:none" />
      <path
         d="m 2462,5667 c -12,-13 -22,-26 -22,-29 0,-3 18,-18 40,-33 40,-28 72,-70 85,-112 6,-22 4,-23 -54,-23 h -61 v -35 -35 h 66 66 l -6,-35 -7,-35 h 45 45 l -6,35 c -6,35 -5,35 31,35 39,0 40,-6 9,-42 -13,-14 -12,-18 6,-28 12,-6 26,-8 31,-5 5,3 18,0 29,-7 17,-10 23,-9 40,6 12,11 21,25 21,32 0,17 -29,33 -50,27 -10,-3 -21,0 -24,6 -5,7 1,11 15,11 21,0 21,2 14,98 -10,144 -30,179 -103,189 -37,5 -39,4 -46,-27 -9,-48 -8,-50 23,-50 37,0 42,-8 48,-81 l 6,-59 h -30 c -27,0 -31,4 -36,36 -9,52 -53,121 -99,154 -23,17 -44,30 -48,30 -3,0 -16,-10 -28,-23 z"
         id="path4"
         inkscape:connector-curvature="0"
         style="fill:#4a6b7a;stroke:none" />
      <path
         d="m 2852,5677 c -15,-6 -21,-17 -18,-26 3,-9 14,-41 25,-71 13,-34 20,-80 21,-122 v -68 h 46 c 40,0 45,2 39,18 -3,9 -11,55 -16,101 -10,86 -43,182 -63,180 -6,0 -21,-5 -34,-12 z"
         id="path6"
         inkscape:connector-curvature="0"
         style="fill:#4a6b7a;stroke:none" />
      <path
         d="m 3014,5663 c -17,-25 -19,-43 -16,-185 l 3,-158 h 37 37 l -3,132 c -4,130 -3,132 15,115 11,-9 30,-40 43,-67 13,-28 26,-50 29,-50 3,0 17,9 30,19 29,22 25,49 -19,109 -26,36 -114,111 -131,112 -3,0 -14,-12 -25,-27 z"
         id="path8"
         inkscape:connector-curvature="0"
         style="fill:#4a6b7a;stroke:none" />
      <path
         d="m 3292,5663 c -13,-14 -22,-26 -20,-27 2,-1 20,-9 40,-18 37,-17 60,-44 73,-85 6,-22 4,-23 -69,-23 h -76 v -35 -35 h 175 175 v 35 35 h -65 c -64,0 -65,0 -65,28 -1,58 -82,154 -129,151 -9,-1 -26,-12 -39,-26 z"
         id="path10"
         inkscape:connector-curvature="0"
         style="fill:#4a6b7a;stroke:none" />
      <path
         d="m 3682,5660 c -21,-28 -21,-29 -3,-35 10,-3 38,-19 61,-36 43,-31 90,-113 90,-156 0,-26 5,-27 49,-12 24,8 31,16 26,28 -4,9 -15,39 -26,66 -25,67 -66,115 -126,148 l -50,26 z"
         id="path12"
         inkscape:connector-curvature="0"
         style="fill:#4a6b7a;stroke:none" />
      <path
         d="m 3981,5666 -22,-23 44,-26 c 48,-29 98,-80 122,-127 l 16,-30 h -46 c -40,0 -49,5 -81,40 -41,45 -52,48 -85,21 l -24,-19 42,-45 c 23,-25 51,-64 63,-87 21,-41 22,-41 63,-35 52,9 53,10 31,32 -17,17 -16,18 42,23 32,3 67,10 77,16 18,10 17,14 -12,78 -37,83 -80,137 -136,176 -53,36 -65,37 -94,6 z"
         id="path14"
         inkscape:connector-curvature="0"
         style="fill:#4a6b7a;stroke:none" />
      <path
         d="m 1760,5465 v -105 h 41 c 33,0 40,3 35,16 -3,9 -6,56 -6,105 v 89 h -35 -35 z"
         id="path16"
         inkscape:connector-curvature="0"
         style="fill:#4a6b7a;stroke:none" />
      <path
         d="m 2050,5511 v -41 h 170 170 v 35 35 h -154 c -85,0 -161,3 -170,6 -13,5 -16,-2 -16,-35 z"
         id="path18"
         inkscape:connector-curvature="0"
         style="fill:#4a6b7a;stroke:none" />
      <path
         d="m 3633,5486 -22,-44 31,-11 c 17,-6 32,-10 33,-9 8,10 35,69 35,76 0,7 -42,32 -53,32 -2,0 -13,-20 -24,-44 z"
         id="path20"
         inkscape:connector-curvature="0"
         style="fill:#4a6b7a;stroke:none" />
      <path
         d="m 3710,5468 c -11,-23 -19,-42 -17,-43 20,-10 60,-25 62,-23 8,9 35,68 35,76 0,7 -42,32 -55,32 -3,0 -14,-19 -25,-42 z"
         id="path22"
         inkscape:connector-curvature="0"
         style="fill:#4a6b7a;stroke:none" />
      <path
         d="m 3300,5375 v -35 h 120 120 v 35 35 h -120 -120 z"
         id="path24"
         inkscape:connector-curvature="0"
         style="fill:#4a6b7a;stroke:none" />
      <path
         d="m 1470,5070 c -159,-19 -273,-97 -316,-217 -19,-55 -18,-188 3,-247 26,-71 98,-147 175,-181 52,-24 80,-30 163,-33 55,-3 144,1 198,8 l 99,13 -6,30 c -3,16 -6,56 -6,88 0,44 -4,59 -14,59 -8,0 -17,-12 -21,-27 -17,-69 -109,-117 -225,-117 -146,1 -228,80 -238,230 -8,129 42,237 140,297 56,35 168,55 211,38 l 27,-11 v -109 c 0,-117 -4,-127 -54,-133 -16,-1 -31,-9 -34,-15 -3,-10 30,-13 142,-13 123,0 146,2 146,15 0,9 -9,15 -24,15 -13,0 -28,6 -34,13 -7,8 -13,67 -14,138 l -3,124 -50,16 c -62,20 -179,28 -265,19 z"
         id="path26"
         inkscape:connector-curvature="0"
         style="fill:#4a6b7a;stroke:none" />
      <path
         d="m 4861,5069 c -141,-16 -248,-87 -300,-198 -22,-47 -26,-70 -26,-146 0,-78 4,-97 28,-147 33,-68 90,-121 165,-156 70,-32 221,-41 349,-22 l 84,12 -3,87 c -2,67 -6,86 -18,86 -8,0 -17,-14 -21,-32 -3,-18 -13,-40 -20,-50 -48,-57 -214,-77 -302,-34 -57,28 -104,94 -112,160 -3,25 -7,53 -9,62 -7,34 16,136 39,176 57,96 157,148 271,141 74,-5 110,-26 137,-81 24,-49 37,-47 37,6 0,75 -17,114 -53,125 -49,15 -164,20 -246,11 z"
         id="path28"
         inkscape:connector-curvature="0"
         style="fill:#4a6b7a;stroke:none" />
      <path
         d="m 158,5063 c -152,-3 -197,-13 -123,-27 26,-5 39,-14 45,-32 6,-14 10,-166 10,-343 0,-347 2,-335 -58,-347 -18,-4 -32,-12 -32,-18 0,-17 322,-15 328,2 2,8 -7,12 -27,12 -18,0 -40,9 -51,20 -20,20 -21,30 -18,325 4,360 -4,338 116,343 99,5 129,-7 150,-58 19,-44 42,-53 42,-16 0,44 -20,130 -33,138 -6,4 -52,7 -102,6 -49,-2 -161,-4 -247,-5 z"
         id="path30"
         inkscape:connector-curvature="0"
         style="fill:#4a6b7a;stroke:none" />
      <path
         d="m 738,5063 c -147,-4 -178,-11 -116,-29 29,-9 33,-15 41,-58 4,-27 7,-157 5,-288 -3,-259 -3,-258 -60,-258 -18,0 -28,-5 -28,-14 0,-13 37,-15 228,-18 125,-2 228,-3 229,-3 1,0 -1,31 -5,69 -7,74 -25,97 -35,46 -8,-39 -37,-50 -128,-50 h -69 v 110 110 h 83 c 58,0 89,-5 103,-15 29,-22 34,-18 34,28 0,95 -21,149 -36,92 -9,-36 -32,-45 -113,-45 h -71 v 114 c 0,131 4,140 73,150 84,13 157,-18 157,-66 0,-10 7,-18 16,-18 15,0 16,9 10,61 -8,84 -14,89 -100,87 -39,-1 -137,-4 -218,-5 z"
         id="path32"
         inkscape:connector-curvature="0"
         style="fill:#4a6b7a;stroke:none" />
      <path
         d="m 2753,5063 c -145,-3 -187,-12 -126,-28 15,-3 31,-12 35,-18 4,-7 8,-136 8,-288 0,-294 0,-293 -49,-301 -14,-1 -26,-9 -29,-15 -3,-10 31,-13 147,-13 125,0 151,3 151,14 0,10 -13,16 -37,18 l -38,3 -6,65 c -9,91 -9,321 0,408 4,47 12,77 21,82 21,13 167,12 192,-1 11,-6 26,-27 35,-46 22,-53 37,-29 28,46 -9,75 -19,82 -112,79 -37,-1 -137,-4 -220,-5 z"
         id="path34"
         inkscape:connector-curvature="0"
         style="fill:#4a6b7a;stroke:none" />
      <path
         d="m 4158,5063 c -141,-3 -181,-13 -121,-28 15,-3 31,-12 35,-18 4,-7 8,-136 8,-288 0,-298 1,-294 -54,-301 -16,-1 -31,-9 -34,-15 -3,-10 44,-13 211,-13 119,0 222,-3 231,-6 13,-5 16,1 16,32 0,95 -25,147 -40,83 -8,-35 -45,-49 -127,-49 h -73 v 110 110 h 88 c 64,0 94,-4 110,-16 13,-9 25,-14 28,-12 2,3 1,39 -2,81 -5,55 -11,77 -20,77 -8,0 -14,-9 -14,-19 0,-39 -26,-51 -111,-51 h -79 v 109 c 0,145 7,155 113,155 83,0 110,-13 121,-60 7,-25 32,-29 30,-6 -1,7 -2,32 -2,56 -3,64 -19,76 -100,74 -37,-1 -133,-4 -214,-5 z"
         id="path36"
         inkscape:connector-curvature="0"
         style="fill:#4a6b7a;stroke:none" />
      <path
         d="m 1830,5052 c 0,-4 19,-14 43,-22 l 42,-15 136,-315 c 132,-307 151,-340 176,-308 5,7 65,142 133,301 67,158 131,298 141,311 10,13 34,27 54,30 74,14 32,26 -90,26 -119,0 -137,-4 -116,-25 6,-6 -4,-44 -26,-97 l -35,-88 h -108 -108 l -31,78 c -17,42 -31,83 -31,90 0,7 14,15 30,19 65,12 24,23 -90,23 -66,0 -120,-4 -120,-8 z m 424,-284 c -4,-13 -22,-61 -40,-108 -30,-78 -33,-83 -42,-60 -6,14 -24,60 -41,103 -17,43 -31,80 -31,82 0,3 36,5 81,5 79,0 80,0 73,-22 z"
         id="path38"
         inkscape:connector-curvature="0"
         style="fill:#4a6b7a;stroke:none" />
      <path
         d="m 3450,5051 c 0,-5 14,-12 30,-16 17,-4 35,-16 42,-28 7,-14 13,-129 16,-341 l 5,-319 -107,6 c -119,8 -143,16 -152,52 -8,32 -34,33 -34,2 0,-13 5,-50 12,-81 11,-56 12,-57 37,-50 14,4 166,8 336,10 l 310,2 -1,26 c -2,112 -4,126 -19,126 -9,0 -15,-9 -15,-25 0,-40 -37,-56 -145,-62 l -97,-6 4,325 c 2,246 6,329 16,340 7,9 33,19 57,23 96,14 40,25 -125,25 -97,0 -170,-4 -170,-9 z"
         id="path40"
         inkscape:connector-curvature="0"
         style="fill:#4a6b7a;stroke:none" />
      <path
         d="m 5230,5051 c 0,-4 15,-12 33,-17 32,-10 32,-10 40,-89 9,-96 5,-490 -5,-501 -4,-4 -24,-10 -43,-13 -20,-3 -37,-10 -38,-16 -1,-6 54,-11 146,-13 124,-2 147,0 147,12 0,9 -12,16 -32,18 l -33,3 -3,123 -3,122 h 168 168 l -3,-112 c -2,-62 -8,-118 -14,-125 -5,-6 -23,-13 -40,-15 -18,-2 -33,-9 -36,-15 -3,-10 31,-13 147,-13 125,0 151,3 151,14 0,9 -12,16 -32,18 l -33,3 -3,275 c -1,151 0,285 3,296 3,16 15,23 45,28 22,3 40,11 40,16 0,6 -58,10 -150,10 -141,0 -189,-10 -120,-25 16,-3 31,-14 34,-23 2,-9 6,-73 8,-142 l 3,-125 -167,-3 -168,-2 v 134 c 0,147 1,150 63,161 78,15 31,25 -118,25 -85,0 -155,-4 -155,-9 z"
         id="path42"
         inkscape:connector-curvature="0"
         style="fill:#4a6b7a;stroke:none" />
    </g>
  </g>
  <g
     inkscape:groupmode="layer"
     id="layer2"
     inkscape:label="Layer 2"
     style="display:inline">
    <g
       id="g84"
       transform="matrix(1.5705283,0,0,1.5796062,-1701.6645,-503.73851)">
      <path
         d="m 3617,4098 c -8,-13 -26,-44 -40,-69 -56,-98 -159,-165 -380,-248 -59,-22 -129,-51 -155,-64 -26,-13 -63,-27 -82,-30 -57,-11 -100,-43 -121,-92 -11,-25 -31,-53 -45,-62 -14,-9 -51,-46 -81,-82 -49,-58 -63,-68 -112,-82 -66,-18 -107,-39 -150,-75 l -32,-27 -152,43 c -84,24 -158,44 -165,46 -10,3 -6,17 16,55 66,115 169,202 280,236 73,22 82,29 82,66 0,39 -38,254 -52,289 -12,33 -45,46 -64,26 -8,-7 -19,-52 -25,-98 -6,-48 -20,-101 -32,-122 -23,-43 -166,-158 -324,-261 -113,-75 -185,-149 -208,-216 -34,-100 -10,-160 73,-185 26,-7 78,-32 115,-54 38,-22 107,-52 155,-67 130,-41 140,-45 201,-90 86,-63 118,-120 146,-263 26,-130 51,-212 95,-309 28,-62 28,-63 7,-58 -31,8 -183,11 -236,5 l -44,-4 -17,84 c -72,351 -291,558 -570,537 -60,-5 -89,-13 -155,-46 -108,-55 -182,-122 -99,-91 197,75 418,-34 533,-262 62,-125 84,-218 83,-368 0,-214 -63,-382 -193,-513 -95,-96 -174,-132 -289,-132 -69,0 -97,5 -147,26 -35,15 -63,23 -63,19 0,-16 82,-81 137,-109 85,-42 157,-61 237,-61 222,0 395,139 486,388 34,93 60,223 60,298 0,50 2,54 28,61 50,12 86,6 182,-32 82,-33 109,-39 197,-43 65,-3 107,-9 113,-17 8,-10 -3,-12 -55,-7 l -65,5 32,-69 c 17,-37 32,-84 33,-104 0,-19 8,-49 17,-66 9,-17 14,-41 11,-53 -8,-30 37,-94 80,-114 19,-10 58,-17 86,-17 63,0 66,-14 7,-29 l -44,-11 -7,-66 c -4,-36 -5,-68 -2,-70 10,-10 135,29 213,66 102,49 145,101 163,194 12,65 -5,158 -44,243 -19,42 -35,79 -35,82 0,4 39,7 88,6 48,0 110,3 138,8 l 51,7 26,-39 c 33,-49 87,-82 192,-116 102,-32 137,-54 175,-106 27,-38 29,-44 15,-59 -8,-9 -15,-21 -15,-26 -1,-5 -267,-188 -592,-407 -476,-319 -594,-394 -600,-382 -13,22 -30,19 -23,-4 6,-20 -28,-47 -105,-82 -19,-9 -48,-28 -65,-43 -33,-28 -41,-31 -50,-16 -3,6 -18,-1 -33,-15 -31,-29 -40,-31 -48,-10 -4,8 -15,15 -26,15 -17,0 -20,-5 -16,-29 4,-29 3,-30 -63,-47 l -68,-18 -173,-173 c -95,-95 -166,-173 -158,-173 8,0 111,39 229,87 l 213,88 46,58 c 37,46 47,55 54,42 21,-36 59,-5 39,32 -7,15 -5,22 10,31 10,7 25,12 34,12 9,0 14,8 12,23 -1,17 5,24 31,32 17,5 32,13 32,17 0,4 7,8 15,8 8,0 15,5 15,10 0,6 7,10 15,10 8,0 15,4 15,9 0,9 61,51 73,51 3,0 14,-14 25,-32 16,-24 18,-37 10,-51 -14,-27 -2,-33 22,-12 24,22 25,43 4,73 -9,13 -14,25 -13,26 2,2 263,178 579,391 572,386 575,388 623,386 26,-1 57,1 68,4 22,7 49,54 49,87 0,19 73,72 430,313 237,159 430,293 430,297 0,19 -34,59 -46,54 -7,-3 -199,-131 -428,-285 -228,-155 -417,-281 -419,-281 -2,0 -20,24 -40,54 -82,124 -215,243 -353,318 -64,34 -88,42 -143,44 -122,6 -120,2 -43,102 38,48 87,102 111,119 56,43 138,66 212,61 49,-4 59,-2 59,12 0,32 -31,60 -85,76 -55,15 -88,44 -101,87 -10,35 -53,86 -86,103 -26,13 -49,15 -133,9 l -102,-7 -24,30 c -13,17 -35,48 -48,70 -30,51 -68,72 -126,72 -46,0 -115,-30 -115,-50 0,-14 -62,-58 -92,-65 -23,-6 -28,-4 -28,11 0,11 11,37 25,59 42,68 63,117 85,194 21,72 29,84 101,145 10,9 19,21 19,26 0,21 -40,49 -104,70 l -67,22 3,36 c 3,37 4,37 55,43 67,8 124,43 191,114 56,59 118,103 217,152 79,40 116,47 159,32 27,-10 41,-10 61,-1 45,21 58,70 59,232 l 1,145 -27,3 c -19,2 -31,-3 -41,-20 z M 1889,2855 c 58,-27 228,-186 217,-203 -3,-6 -43,27 -88,72 -118,117 -205,152 -268,109 -24,-17 -25,-17 -10,2 40,53 70,56 149,20 z m 1246,-955 c -3,-5 -13,-10 -21,-10 -8,0 -14,5 -14,10 0,6 9,10 21,10 11,0 17,-4 14,-10 z m 14,-61 c -18,-11 -39,-11 -39,0 0,11 31,20 44,13 4,-2 2,-8 -5,-13 z m 11,-54 c 0,-8 -9,-15 -20,-15 -20,0 -26,11 -13,23 12,13 33,7 33,-8 z m -16,-69 c -3,-8 -12,-12 -20,-9 -21,8 -17,23 6,23 13,0 18,-5 14,-14 z m -1043,-23 c -15,-29 -112,-121 -161,-153 -60,-40 -159,-70 -229,-69 -50,1 -53,2 -26,10 17,5 57,14 90,20 94,15 180,62 255,140 65,67 89,85 71,52 z M 2350,652 c 0,-5 -19,-19 -42,-31 l -43,-23 35,31 c 36,31 50,38 50,23 z"
         id="path44"
         inkscape:connector-curvature="0"
         style="fill:#4a6b7a;stroke:none" />
      <path
         d="m 1520,2260 v -480 h 23 c 12,0 45,13 73,30 73,42 131,119 159,215 11,36 15,40 49,43 l 38,3 -7,-33 c -12,-61 -73,-177 -119,-226 -25,-27 -69,-62 -98,-78 -46,-25 -64,-29 -128,-29 -61,0 -84,5 -125,27 -87,45 -177,162 -201,261 -5,24 -3,27 19,27 21,0 30,-9 51,-56 14,-30 35,-69 47,-85 25,-35 95,-89 116,-89 11,0 13,81 13,465 0,256 -3,465 -6,465 -3,0 -33,-14 -66,-32 -255,-136 -349,-559 -191,-861 48,-90 130,-175 208,-213 55,-26 69,-29 165,-29 96,0 110,3 164,29 85,42 168,130 216,230 172,358 12,817 -308,885 -103,22 -92,77 -92,-469 z"
         id="path46"
         inkscape:connector-curvature="0"
         style="fill:#4a6b7a;stroke:none" />
    </g>
  </g>
</svg>
