<svg id="svg" xmlns="http://www.w3.org/2000/svg" xmlns:xlink="http://www.w3.org/1999/xlink" width="400" height="400" viewBox="0, 0, 400,400"><g id="svgg">
<circle cx="315" cy="182" r="14" fill="#747474" />
<path id="path0" d="M251 121 
v10 H375 V273 H162 v-20 h-10 v30 H385 V121 
M208.322 218.416 C 207.415 219.666,201.433 223.829,196.877 226.381 C 194.727 227.586,193.204 228.571,193.494 228.571 C 195.231 228.571,209.524 219.053,209.524 217.896 C 209.524 217.269,208.985 217.503,208.322 218.416 M108.190 218.963 C 108.190 220.166,118.561 227.429,120.280 227.429 C 121.046 227.429,120.839 226.835,120.052 226.775 C 118.655 226.670,109.826 220.832,108.758 219.308 C 108.446 218.862,108.190 218.707,108.190 218.963 M311.581 220.026 C 308.862 221.487,303.098 224.304,300.762 225.311 C 299.924 225.673,298.947 226.122,298.591 226.309 C 298.235 226.496,297.400 226.745,296.737 226.862 C 296.073 226.979,295.036 227.330,294.432 227.642 C 293.828 227.954,293.333 228.128,293.333 228.027 C 293.333 227.926,292.605 228.106,291.714 228.427 C 290.824 228.748,289.620 229.075,289.039 229.155 C 288.458 229.234,287.802 229.411,287.582 229.547 C 287.362 229.683,286.723 229.844,286.162 229.906 C 285.602 229.967,284.714 230.135,284.190 230.280 C 283.667 230.424,282.724 230.606,282.095 230.685 C 281.467 230.764,280.352 230.941,279.619 231.079 C 278.886 231.217,277.300 231.352,276.095 231.379 C 274.890 231.406,273.904 231.549,273.905 231.697 C 273.905 231.844,271.676 231.940,268.952 231.909 C 266.229 231.879,264.000 231.741,264.000 231.603 C 264.000 231.465,263.186 231.351,262.190 231.350 C 261.195 231.349,259.781 231.233,259.048 231.093 C 258.314 230.952,257.114 230.775,256.381 230.699 C 255.648 230.623,254.619 230.442,254.095 230.298 C 253.571 230.153,252.800 229.972,252.381 229.895 C 251.351 229.706,250.337 229.448,248.850 228.998 C 248.165 228.790,247.522 228.610,247.422 228.596 C 247.321 228.582,247.195 228.558,247.143 228.542 C 246.835 228.448,245.755 228.200,244.774 227.997 C 244.152 227.869,243.466 227.621,243.250 227.445 C 243.034 227.270,242.086 226.907,241.143 226.639 C 240.200 226.371,239.257 226.039,239.048 225.900 C 238.838 225.762,237.638 225.245,236.381 224.753 C 235.124 224.260,234.008 223.732,233.902 223.579 C 233.343 222.776,229.990 224.190,228.690 225.777 C 226.340 228.644,226.618 229.755,230.090 231.376 C 234.246 233.317,236.571 234.285,236.571 234.073 C 236.571 233.971,236.957 234.131,237.429 234.430 C 238.184 234.909,240.399 235.550,240.950 235.450 C 241.060 235.430,241.679 235.686,242.325 236.020 
C 250 239,273 242,288.381 238.062
C 288.695 238.043,289.552 237.837,290.286 237.606 C 291.880 237.102,292.600 236.922,293.238 236.867 C 293.500 236.844,293.714 236.698,293.714 236.542 C 293.714 236.386,294.014 236.306,294.381 236.364 C 294.748 236.423,295.497 236.243,296.047 235.965 C 296.597 235.687,297.132 235.544,297.236 235.649 C 297.340 235.753,297.919 235.639,298.522 235.395 C 300.055 234.777,300.769 234.499,303.810 233.336 C 305.276 232.775,306.990 232.007,307.619 231.630 C 308.248 231.253,309.190 230.817,309.714 230.661 C 310.975 230.286,316.912 226.803,318.000 225.800 C 319.331 224.574,319.166 219.807,317.772 219.213 C 316.003 218.460,314.005 218.722,311.581 220.026 " stroke="none" fill="#747474" fill-rule="evenodd"></path>
<path id="path1" d="M108.665 159.508 L 108.762 219.587 110.667 221.048 C 113.287 223.059,118.984 226.584,119.855 226.734 C 120.553 226.854,120.574 225.389,120.668 169.238 L 120.764 111.619 172.001 111.619 C 203.665 111.619,223.238 111.482,223.238 111.262 C 223.238 110.665,218.897 105.127,216.128 102.190 L 213.523 99.429 161.046 99.429 L 108.569 99.429 108.665 159.508 M174.182 144.675 C 171.821 147.036,172.116 157.590,174.726 164.112 C 183.070 184.969,210.847 190.170,225.695 173.655 C 228.978 170.003,228.745 169.719,218.284 164.644 C 213.990 162.560,202.933 157.136,193.714 152.591 C 175.536 143.628,175.317 143.540,174.182 144.675 M163.505 195.886 C 160.972 198.418,178.863 218.521,190.960 226.737 L 193.285 228.316 195.785 227.026 C 198.823 225.458,205.341 221.137,207.429 219.306 C 209.213 217.740,209.128 217.595,205.714 216.379 C 194.635 212.434,179.821 205.037,167.718 197.407 C 164.306 195.256,164.180 195.210,163.505 195.886 " stroke="none" fill="#e2067d" fill-rule="evenodd"></path>
<path id="path2" d="M146.388 58.104 C 87.900 64.821,47.678 121.993,61.146 179.268 C 75.877 241.918,145.303 274.329,202.857 245.426 C 212.316 240.675,223.688 232.170,228.121 226.529 C 229.214 225.138,230.351 224.000,230.648 224.000 C 231.479 224.000,237.033 217.148,240.836 211.429 C 255.410 189.511,260.610 161.752,255.023 135.693 C 254.515 133.324,253.923 131.057,253.708 130.656 C 252.910 129.164,251.014 122.836,251.178 122.209 C 251.271 121.852,251.231 121.509,251.087 121.447 C 250.944 121.384,249.997 119.403,248.983 117.044 C 231.915 77.353,189.742 53.125,146.388 58.104 M165.007 76.956 C 188.220 79.219,213.511 93.874,223.810 111.029 C 234.662 129.108,237.894 139.671,237.860 156.952 C 237.752 211.801,184.511 250.025,132.452 232.630 C 123.586 229.667,113.891 224.507,108.598 219.934 C 96.561 209.534,90.001 201.091,84.674 189.143 C 60.068 133.957,105.068 71.113,165.007 76.956 M81.635 237.331 C 80.628 237.746,81.277 236.871,58.466 268.571 C 48.439 282.505,36.720 298.790,32.423 304.762 C 17.208 325.906,17.684 325.042,17.978 330.983 C 18.635 344.248,34.862 350.404,44.056 340.875 C 44.925 339.975,47.484 336.667,49.742 333.524 C 60.209 318.956,86.056 283.039,94.976 270.667 C 105.696 255.797,106.097 255.141,105.497 253.421 C 105.157 252.445,95.559 245.134,85.501 238.189 C 84.036 237.178,82.717 236.885,81.635 237.331 " stroke="none" fill="#04a3ea" fill-rule="evenodd"/>
</g></svg>